<mxfile host="app.diagrams.net" modified="2024-07-07T10:43:46.957Z" agent="Mozilla/5.0 (Windows NT 10.0; Win64; x64) AppleWebKit/537.36 (KHTML, like Gecko) Chrome/126.0.0.0 Safari/537.36" version="24.6.4" etag="NZlbz_VFCHnUuFbmipZy" type="github">
  <diagram name="Page-1" id="l1lljqcxFRZi-ysl9xKf">
    <mxGraphModel>
      <root>
        <mxCell id="0" />
        <mxCell id="1" parent="0" />
      </root>
    </mxGraphModel>
  </diagram>
</mxfile>
